<svg width="90" height="35" viewBox="0 0 90 35" fill="none" xmlns="http://www.w3.org/2000/svg">
<path fill-rule="evenodd" clip-rule="evenodd" d="M30.1728 0.0529032C31.9451 0.0529032 33.3206 0.423234 34.3523 1.16389C35.3574 1.90455 35.86 3.04198 35.8865 4.54974C35.8865 5.2904 35.7278 6.03106 35.3839 6.69236C35.0929 7.30075 34.5903 7.80334 33.9819 8.09431V8.20012C34.6697 8.51754 35.2516 9.02013 35.6749 9.68143C35.9394 10.0782 36.1245 10.5014 36.2568 10.9511C36.4155 11.4802 36.4949 12.0621 36.4684 12.6176C36.4949 13.4641 36.3097 14.2841 35.9658 15.0247C35.6484 15.7125 35.1458 16.2944 34.5639 16.7441C33.9555 17.2203 33.2677 17.5641 32.5271 17.7757C31.76 18.0138 30.9399 18.1196 30.1464 18.1196H20.465V0H30.1728V0.0529032ZM25.1205 6.71881H29.3793C29.9083 6.77171 30.4109 6.613 30.8077 6.26912C31.0722 5.97815 31.2309 5.58137 31.2045 5.18459C31.2045 4.81427 31.0722 4.44394 30.8077 4.15296C30.4109 3.80909 29.8819 3.65038 29.3793 3.70328H25.1205V6.71881ZM25.1205 14.4957H29.4322C30.0935 14.5486 30.7548 14.3634 31.2574 13.9402C31.6277 13.5434 31.8129 13.0408 31.7864 12.4853C31.8393 11.8769 31.6012 11.295 31.1516 10.8982C30.649 10.5279 30.0406 10.3427 29.4322 10.3692H25.1205V14.4957Z" fill="#010202"/>
<path fill-rule="evenodd" clip-rule="evenodd" d="M40.8859 18.1725H35.9659L42.3672 0.0793689H47.1286L53.6887 18.1725H48.5041L47.6312 15.0247H41.7853L40.8859 18.1725ZM44.7215 4.81427H44.6157L42.7376 11.5331H46.5731L44.7215 4.81427Z" fill="#010202"/>
<path d="M59.032 7.45948H59.1378L65.7773 18.1725H70.4593V0.0529234H65.8037V10.1576H65.6979L59.5346 0.0529234H54.3765V18.1725H59.032V7.45948Z" fill="#010202"/>
<path d="M76.94 0.0529234V6.4014L82.8917 0.0529234H89.0286L81.7279 6.9569L89.4518 18.1725H83.6059L78.2626 10.1311L76.9136 11.4273V18.1725H72.258V0.0529234H76.94Z" fill="#010202"/>
<path d="M10.1223 23.992V20.95H0.414394V23.992H3.58863V34.6521H6.94804V23.992H10.1223Z" fill="#010202"/>
<path fill-rule="evenodd" clip-rule="evenodd" d="M18.1901 20.95C18.6662 20.95 19.1688 21.0558 19.592 21.241C20.0153 21.4261 20.4121 21.7171 20.703 22.0874C21.0204 22.4578 21.2585 22.881 21.4172 23.3571C21.6024 23.8597 21.6817 24.3888 21.6817 24.9178C21.7082 25.7114 21.4966 26.4785 21.0998 27.1662C20.703 27.8011 20.1475 28.2772 19.4862 28.5946L21.4926 33.4826L25.7024 20.95H29.1412L33.8496 34.6521H30.1199L29.4851 32.2715H25.2792L24.6443 34.6521H18.4017L16.3384 29.0708H13.6403V34.6521H10.2809V20.95H18.1901ZM17.1849 26.2139C17.5023 26.2404 17.8198 26.1081 18.0049 25.8436C18.1901 25.6056 18.2694 25.3146 18.2694 25.0236C18.2694 24.8913 18.243 24.7326 18.2165 24.6004C18.1901 24.4681 18.1107 24.3359 18.0314 24.2036C17.952 24.0978 17.8198 23.992 17.6875 23.9126C17.5288 23.8333 17.3701 23.7804 17.1849 23.8068H13.6668V26.2139H17.1849ZM27.3689 24.5475H27.4218L28.7709 29.6263H26.0198L27.3689 24.5475Z" fill="#010202"/>
<path d="M37.2885 26.5578H37.2091V34.6521H33.8496L33.8497 20.95H37.553L41.9969 28.5946H42.0763V20.95H45.4357V34.6521H42.0498L37.2885 26.5578Z" fill="#010202"/>
<path d="M48.9802 34.705C49.6944 34.9166 50.4351 35.0225 51.1757 34.996C51.8899 35.0225 52.6306 34.9166 53.3712 34.6786C54.0061 34.5199 54.6145 34.2289 55.1435 33.8586C55.6461 33.5147 56.0429 33.0386 56.3339 32.5095C56.6248 31.9011 56.7836 31.2663 56.7571 30.605C56.7836 29.9437 56.6513 29.2559 56.3868 28.6475C56.1487 28.1714 55.8048 27.7482 55.3816 27.4043C54.9319 27.0604 54.4293 26.7959 53.9003 26.6107C53.3452 26.4257 52.7108 26.2407 52.0764 26.0556L52.0751 26.0552C51.6783 25.9494 51.308 25.8436 50.9112 25.6849C50.6467 25.6055 50.4086 25.4733 50.197 25.3146C50.0383 25.2088 49.906 25.0501 49.8267 24.8913C49.7473 24.7326 49.7209 24.5739 49.7209 24.3888C49.7473 24.0978 49.8796 23.8333 50.1176 23.6481C50.9377 23.172 51.9428 23.1984 52.7364 23.7275C53.1067 24.0978 53.3712 24.5739 53.4771 25.103L56.3603 23.8333C56.1752 23.3307 55.9635 22.881 55.6726 22.4313C55.408 22.0345 55.0642 21.6906 54.6674 21.4261C54.2442 21.1352 53.768 20.9235 53.2654 20.7913C52.657 20.6326 51.9957 20.5797 51.3609 20.5797C50.6467 20.5797 49.9325 20.659 49.2447 20.8442C48.6363 21.0029 48.0808 21.2674 47.5783 21.6377C47.1021 21.9816 46.7318 22.4313 46.4673 22.9339C46.2028 23.4629 46.0705 24.0713 46.0705 24.6797C46.0705 25.2352 46.1763 25.7907 46.3879 26.3198C46.5995 26.7959 46.917 27.2191 47.3137 27.563C47.7899 27.9598 48.2925 28.2772 48.848 28.5153C49.5357 28.8062 50.2499 29.0708 50.9906 29.2824C51.3344 29.3882 51.6784 29.494 52.0222 29.6527C52.2603 29.7585 52.4719 29.8908 52.657 30.0495C52.7893 30.1553 52.8951 30.314 52.9745 30.4992C53.0274 30.6843 53.0538 30.8695 53.0538 31.0547C53.0538 31.2398 53.0009 31.4514 52.8951 31.6102C52.7893 31.7689 52.6835 31.9011 52.5248 31.9805C52.3661 32.0863 52.2074 32.1392 52.0222 32.1656C51.837 32.1921 51.6519 32.2185 51.4667 32.2185C50.8319 32.245 50.197 32.0334 49.6944 31.6102C49.2183 31.134 48.9538 30.4992 48.9273 29.8114L45.7266 31.1076C45.8589 31.6366 46.0705 32.1656 46.335 32.6682C46.5995 33.1708 46.9699 33.5676 47.3931 33.9115C47.8692 34.2553 48.3983 34.5199 48.9802 34.705Z" fill="#010202"/>
<path d="M60.3546 26.0288H65.5656V29.0708H60.3546V34.6521H56.9952V20.95H67.1528V23.992H60.3546V26.0288Z" fill="#010202"/>
<path d="M77.5748 20.95H67.4172V34.6786H77.76V31.6366H70.7767V28.8856H76.7284V25.8436H70.7767V23.992H77.5748V20.95Z" fill="#010202"/>
<path fill-rule="evenodd" clip-rule="evenodd" d="M85.9072 20.95C86.3833 20.95 86.8859 21.0558 87.3092 21.241C87.7324 21.4261 88.1292 21.7171 88.4201 22.0874C88.7376 22.4578 88.9756 22.881 89.1343 23.3571C89.3195 23.8597 89.3989 24.3888 89.3989 24.9178C89.4253 25.7114 89.2137 26.4785 88.8169 27.1662C88.4201 27.8011 87.8646 28.2772 87.2033 28.5946L89.6898 34.6521H86.1188L84.0556 29.0708H81.3575V34.6521H77.998V20.95H85.9072ZM84.902 26.2139C85.2194 26.2404 85.5369 26.1081 85.722 25.8436C85.9072 25.6056 85.9866 25.3146 85.9866 25.0236C85.9866 24.8913 85.9601 24.7326 85.9336 24.6004C85.9072 24.4681 85.8278 24.3359 85.7485 24.2036C85.6691 24.0978 85.5369 23.992 85.4046 23.9126C85.2459 23.8333 85.0872 23.7804 84.902 23.8068H81.3839V26.2139H84.902Z" fill="#010202"/>
<path d="M0.334961 0.0529234H18.6662V3.72975H0.334961V0.0529234Z" fill="#010202"/>
<path d="M18.6662 6.95689H0.334961V10.6337H18.6662V6.95689Z" fill="#010202"/>
<path d="M0.334961 14.5222H18.6662V18.199H0.334961V14.5222Z" fill="#010202"/>
</svg>
