<svg width="110" height="60" viewBox="0 0 110 60" fill="none" xmlns="http://www.w3.org/2000/svg">
<rect width="110" height="60" rx="10" fill="#2689C7"/>
<path d="M26.7887 35.7099C26.7882 36.0185 26.7877 36.2915 26.7877 36.4952L26.4265 36.4967C26.4055 35.0193 25.6137 33.7482 24.6438 33.0829C23.8523 32.5395 22.7585 32.1543 20.8854 31.6913C19.1337 31.2602 18.6626 29.4231 19.1895 28.0419C19.7579 26.5599 20.8167 26.0448 22.08 25.9351C23.9056 25.7165 26.7954 28.5205 26.7739 32.4954C26.7936 32.7574 26.7907 34.5042 26.7887 35.7097V35.7099Z" fill="#FFFEFE"/>
<path d="M26.005 36.4967C26.0111 35.2157 25.2962 34.083 24.3617 33.4742C23.5329 32.9362 22.4201 32.5826 20.625 32.1274C20.0701 31.9854 19.4897 31.6701 19.31 31.2682C18.8346 31.7472 18.7483 32.8241 18.8319 33.4534C18.9291 34.1817 19.7801 35.3821 21.0615 35.4291C21.844 35.4605 22.8333 35.2607 23.3078 35.1599C24.1262 34.9831 25.4212 35.4958 25.6273 36.4952L26.005 36.4967Z" fill="#FFFEFE"/>
<path d="M27.3958 19.7405C27.4137 19.7403 27.4316 19.7402 27.4495 19.7402H27.3422C27.3601 19.7402 27.3779 19.7403 27.3958 19.7405Z" fill="#FFFEFE"/>
<path d="M27.3958 19.7405C25.2461 19.7639 23.4002 21.1936 23.407 23.6527C23.4122 25.2632 24.4137 26.2957 25.145 27.0497C25.3605 27.2719 25.5526 27.4699 25.6887 27.6513C26.5929 28.8528 27.0822 30.2749 27.1331 32.4509C27.1609 33.6692 27.1682 34.8769 27.1731 35.6969C27.1751 36.0424 27.1768 36.3191 27.1794 36.4988H27.6591C27.6507 35.8647 27.629 34.0493 27.6539 32.3973C27.6864 30.2206 28.1934 28.8528 29.098 27.6513C29.2341 27.4714 29.4249 27.2753 29.6387 27.0554C30.3724 26.301 31.3776 25.2673 31.3804 23.6527C31.3885 21.1936 29.5438 19.7639 27.3958 19.7405Z" fill="#FFFEFE"/>
<path d="M28.0011 36.4952C28.0011 36.2848 28.0006 36.0004 28 35.6794C27.9979 34.4751 27.9949 32.7553 28.014 32.4954C27.9927 28.5205 30.8807 25.7165 32.7079 25.9351C33.9712 26.0448 35.0288 26.5599 35.5989 28.0419C36.1253 29.4231 35.6515 31.2602 33.9018 31.6913C32.0278 32.1543 30.9354 32.5395 30.1418 33.0829C29.173 33.7482 28.4366 35.0193 28.414 36.4967L28.0011 36.4952Z" fill="#FFFEFE"/>
<path d="M30.423 33.4742C29.4913 34.083 28.7766 35.2157 28.7834 36.4967L29.1581 36.4952C29.3652 35.4958 30.6637 34.9831 31.479 35.1599C31.9514 35.2607 32.9459 35.4605 33.7282 35.4291C35.0073 35.3821 35.8561 34.1817 35.9553 33.4534C36.0389 32.8241 35.9528 31.7472 35.4752 31.2682C35.2987 31.6701 34.7189 31.9854 34.1629 32.1274C32.3693 32.5826 31.2552 32.9362 30.423 33.4742Z" fill="#FFFEFE"/>
<path fill-rule="evenodd" clip-rule="evenodd" d="M29.4535 40.6324L29.1755 38.6036L29.8466 38.5018C30.01 38.4795 30.2089 38.5079 30.2885 38.6103C30.3764 38.7173 30.4033 38.8057 30.4203 38.9458C30.4456 39.1192 30.3954 39.3197 30.2001 39.4196V39.4257C30.4182 39.4257 30.55 39.5823 30.5882 39.8468C30.5886 39.851 30.5891 39.8556 30.5896 39.8606L30.5897 39.8611C30.5962 39.9234 30.6091 40.0463 30.5938 40.1502C30.5495 40.4181 30.3897 40.5042 30.1201 40.5419L29.4535 40.6324ZM29.8855 40.2691C29.8982 40.2673 29.9109 40.2657 29.9236 40.264C29.9903 40.2555 30.0558 40.2471 30.1088 40.2133C30.2053 40.1502 30.1965 40.0153 30.1831 39.9151C30.1495 39.6949 30.0921 39.6113 29.8586 39.6459L29.7119 39.6685L29.8048 40.2804L29.8855 40.2691ZM29.7449 39.3317L29.7527 39.3304C29.7584 39.3295 29.7643 39.3286 29.7702 39.3277C29.8553 39.3147 29.9588 39.2988 30.0044 39.2223C30.0075 39.2155 30.0108 39.2088 30.0141 39.2022C30.0379 39.154 30.0616 39.1061 30.0421 38.996C30.0148 38.8475 29.9655 38.7555 29.777 38.7912L29.6013 38.8194L29.6705 39.3394L29.7449 39.3317Z" fill="#FFFEFE"/>
<path d="M32.3619 39.4221L32.3605 39.4121L31.9835 39.4858C31.9859 39.5036 31.9897 39.5247 31.9938 39.548C32.0209 39.7004 32.0651 39.9496 31.8843 39.9859C31.6273 40.0376 31.5613 39.7693 31.528 39.6014L31.4175 39.0459C31.4155 39.0358 31.4132 39.0247 31.4107 39.0128C31.3758 38.8444 31.3084 38.5196 31.5859 38.4862C31.7366 38.4689 31.7968 38.6549 31.8384 38.7836C31.8425 38.7962 31.8463 38.8082 31.8501 38.8194L32.2179 38.7435C32.2128 38.7055 32.2012 38.6679 32.1897 38.6302L32.1874 38.6229C32.1861 38.6184 32.1847 38.6139 32.1834 38.6094C32.1817 38.604 32.1801 38.5986 32.1785 38.5932C32.0856 38.2568 31.8623 38.1223 31.5244 38.184C30.925 38.3034 30.9614 38.6908 31.0461 39.2026L31.1038 39.4919C31.212 40.0268 31.3298 40.4088 31.9446 40.2904C32.3605 40.206 32.4283 39.8997 32.3741 39.5297C32.372 39.4952 32.3667 39.4572 32.3619 39.4221Z" fill="#FFFEFE"/>
<path fill-rule="evenodd" clip-rule="evenodd" d="M32.9507 40.0261L32.8234 37.9265L33.3175 37.7757L34.3534 39.6018L33.9644 39.7182L33.719 39.2541L33.287 39.3839L33.3428 39.9115L32.9507 40.0261ZM33.2509 39.0448L33.563 38.9544L33.1485 38.1049L33.2509 39.0448Z" fill="#FFFEFE"/>
<path d="M21.6299 37.7412C21.04 37.5793 20.9014 37.9437 20.7468 38.4388L20.6704 38.7238C20.5262 39.2514 20.4631 39.6463 21.0673 39.8098C21.2041 39.836 21.3603 39.8168 21.4882 39.6335H21.4961L21.4335 39.8577L21.7115 39.9332L21.9983 38.8723L21.3942 38.6779L21.3053 38.9964L21.5623 39.0645C21.4864 39.3651 21.3591 39.5711 21.1494 39.5146C20.8955 39.4449 20.9525 39.1748 21 39.0114L21.1494 38.4609C21.1517 38.4521 21.1541 38.4426 21.1567 38.4326C21.1981 38.2706 21.2763 37.9648 21.5479 38.0393C21.7974 38.1162 21.7669 38.2769 21.7187 38.4795L22.086 38.581C22.0906 38.5601 22.0958 38.5391 22.101 38.518C22.1159 38.4574 22.131 38.396 22.1322 38.3355C22.1414 37.9686 21.9457 37.8293 21.6299 37.7412Z" fill="#FFFEFE"/>
<path fill-rule="evenodd" clip-rule="evenodd" d="M22.9956 39.3348L22.8137 40.1979L22.4041 40.1093L22.8406 38.094L23.5388 38.2518C23.9474 38.34 24.0708 38.522 24.013 38.8965C23.9804 39.1091 23.8763 39.338 23.6238 39.325C23.8319 39.4014 23.8491 39.5112 23.8116 39.6987C23.8108 39.7024 23.8099 39.7069 23.8088 39.7123L23.8056 39.7272C23.7774 39.8594 23.688 40.2791 23.7598 40.3519L23.7625 40.4123L23.3387 40.3018C23.3247 40.1934 23.3596 40.0165 23.3864 39.8801C23.3934 39.8447 23.3998 39.8119 23.4047 39.7839L23.407 39.7728C23.4309 39.6534 23.4632 39.4921 23.3448 39.4303C23.2717 39.3914 23.2338 39.3837 23.1716 39.3712C23.1525 39.3673 23.1311 39.3629 23.1057 39.3571L22.9956 39.3348ZM23.0655 39.0227L23.3412 39.097C23.5087 39.1212 23.6018 39.0344 23.6348 38.8321C23.6647 38.6465 23.626 38.574 23.4757 38.538L23.1801 38.4781L23.0655 39.0227Z" fill="#FFFEFE"/>
<path d="M26.0276 38.5914L25.6226 38.5443L25.4494 39.9275C25.4227 40.1229 25.3689 40.28 25.1318 40.2619C24.8713 40.2357 24.8977 40.0235 24.9163 39.8736L24.9178 39.862L25.093 38.4781L24.6847 38.4313L24.5091 39.8468C24.4786 40.2996 24.598 40.5286 25.1006 40.5921C25.5947 40.6536 25.7683 40.4572 25.8531 40.008L26.0276 38.5914Z" fill="#FFFEFE"/>
<path fill-rule="evenodd" clip-rule="evenodd" d="M26.4742 40.6697L26.596 38.6438L27.3743 38.6775C27.742 38.6956 27.8383 38.996 27.8268 39.2826C27.8162 39.4569 27.7617 39.6515 27.6098 39.7571C27.4852 39.8468 27.3252 39.8681 27.1767 39.8609L26.9231 39.8468L26.8725 40.6958L26.4742 40.6697ZM26.9346 39.5378L27.1408 39.5494C27.3083 39.5554 27.4192 39.4892 27.4337 39.2433C27.4419 39.0071 27.3526 38.9671 27.1356 38.9576L26.9722 38.952L26.9346 39.5378Z" fill="#FFFEFE"/>
<path fill-rule="evenodd" clip-rule="evenodd" d="M17.4486 40.1147C20.8384 41.7238 24.2327 42.5373 27.5354 42.5373C31.0346 42.5373 34.5169 41.7635 37.6047 40.3017L37.691 40.2619L37.7319 40.176C39.2841 36.9075 40.0691 33.5425 40.0691 30.1761C40.0691 26.7966 39.2515 23.2851 37.7012 20.0146L37.6616 19.9278L37.5757 19.8896C34.2309 18.3004 30.7288 17.4627 27.4495 17.4627C23.9293 17.4627 20.5561 18.2152 17.4203 19.7008L17.3356 19.7433L17.2938 19.8286C15.7714 23.0356 15 26.3976 15 29.8289C15 33.2653 15.8044 36.7777 17.3256 39.989L17.3654 40.0738L17.4486 40.1147ZM27.5354 42.0059C24.3396 42.0059 21.0554 41.2235 17.7623 39.6744C16.3033 36.5603 15.5312 33.1564 15.5312 29.8289C15.5312 26.5077 16.2741 23.2505 17.7338 20.1421C20.7749 18.7159 24.0415 17.993 27.4495 17.993C30.6239 17.993 34.0139 18.8023 37.26 20.3284C38.7513 23.5026 39.5397 26.9051 39.5397 30.1761C39.5397 33.434 38.7843 36.6936 37.2941 39.8609C34.2942 41.2651 30.9241 42.0059 27.5354 42.0059Z" fill="#FFFEFE"/>
<path d="M78.2687 27.3127L81.3617 21.6982L77.0981 19.4477L76.5552 20.1421C76.0179 19.9452 75.3896 19.7675 74.8758 19.7675C66.4919 19.7675 61.4344 26.6861 61.4299 32.3749C61.4279 36.6783 64.1979 40.8896 71.0527 40.6851C71.9787 40.6564 72.4796 40.5477 73.2877 40.3724C73.5567 40.314 73.8599 40.2482 74.2241 40.1755L77.2832 33.6618C76.6255 34.1707 74.3401 35.2892 72.7326 35.2892C68.9027 35.2892 67.8042 32.8137 67.8042 31.1359C67.8042 28.8756 69.5525 25.6668 73.8568 25.6668C75.6757 25.6668 77.1013 26.3646 78.2687 27.3127Z" fill="#FFFEFE"/>
<path fill-rule="evenodd" clip-rule="evenodd" d="M94.1241 19.6237L95 40.0299H88.4817L88.4779 36.5302H84.0332L82.5703 40.0299H75.5012L82.8918 25.4582L81.2252 25.4473L84.3917 19.6237H94.1241ZM88.4356 25.8664L85.9226 31.8019H88.5113L88.4356 25.8664Z" fill="#FFFEFE"/>
<path fill-rule="evenodd" clip-rule="evenodd" d="M62.3668 23.9255C62.3668 21.3942 60.5427 19.6418 57.3148 19.6237C54.6899 19.6057 48.7326 19.6237 48.7326 19.6237L45.6082 25.6523L47.1366 25.6612L43.4157 40.0299H52.9546C57.3286 40.0299 60.6935 36.8962 60.6935 33.5425C60.6935 32.1543 60.5054 30.1921 58.3312 29.3928C60.443 28.3247 62.3668 26.2591 62.3668 23.9255ZM56.2893 26.4358C55.9945 27.7282 54.8156 27.8973 54.1479 27.8973L52.4174 27.8973L53.0787 24.9869L54.9751 24.9952C55.5059 24.9952 56.6123 25.033 56.2893 26.4358ZM50.5935 34.857L51.4667 31.5033H53.7731C54.6485 31.5033 55.4855 32.235 55.1957 33.3295C54.9024 34.4209 53.7051 34.857 52.8265 34.857H50.5935Z" fill="#FFFEFE"/>
</svg>
