<svg width="25" height="26" viewBox="0 0 25 26" fill="none" xmlns="http://www.w3.org/2000/svg">
<path d="M2.60556 2.66891C2.81867 2.4558 3.10771 2.33608 3.40909 2.33608H13.6364C13.9377 2.33608 14.2268 2.4558 14.4399 2.66891C14.653 2.88202 14.7727 3.17106 14.7727 3.47244V4.60881C14.7727 5.2364 15.2815 5.74517 15.9091 5.74517C16.5367 5.74517 17.0454 5.2364 17.0454 4.60881V3.47244C17.0454 2.5683 16.6863 1.70118 16.0469 1.06185C15.4076 0.422525 14.5405 0.0633545 13.6364 0.0633545H3.40909C2.50494 0.0633545 1.63783 0.422525 0.998499 1.06185C0.359171 1.70118 0 2.5683 0 3.47244V13.6997C0 14.6039 0.359171 15.471 0.998499 16.1103C1.63783 16.7496 2.50494 17.1088 3.40909 17.1088H4.54545C5.17305 17.1088 5.68182 16.6 5.68182 15.9724C5.68182 15.3448 5.17305 14.8361 4.54545 14.8361H3.40909C3.10771 14.8361 2.81867 14.7163 2.60556 14.5032C2.39245 14.2901 2.27273 14.0011 2.27273 13.6997V3.47244C2.27273 3.17106 2.39245 2.88202 2.60556 2.66891Z" fill="#2689C7"/>
<path fill-rule="evenodd" clip-rule="evenodd" d="M11.3638 8.01791C9.48104 8.01791 7.95473 9.54421 7.95473 11.427V21.6543C7.95473 23.5371 9.48104 25.0634 11.3638 25.0634H21.5911C23.4739 25.0634 25.0002 23.5371 25.0002 21.6543V11.427C25.0002 9.54421 23.4739 8.01791 21.5911 8.01791H11.3638ZM10.2275 11.427C10.2275 10.7994 10.7362 10.2906 11.3638 10.2906H21.5911C22.2187 10.2906 22.7275 10.7994 22.7275 11.427V21.6543C22.7275 22.2819 22.2187 22.7906 21.5911 22.7906H11.3638C10.7362 22.7906 10.2275 22.2819 10.2275 21.6543V11.427Z" fill="#2689C7"/>
</svg>
