<svg width="56" height="56" viewBox="0 0 56 56" fill="none" xmlns="http://www.w3.org/2000/svg">
<path d="M5.49997 10C5.49997 7.51472 7.51469 5.5 9.99997 5.5H21.25C23.7352 5.5 25.75 7.51472 25.75 10V21.25C25.75 23.7353 23.7352 25.75 21.25 25.75H9.99997C7.51469 25.75 5.49997 23.7353 5.49997 21.25V10Z" fill="#2689C7"/>
<path d="M5.49997 34.75C5.49997 32.2647 7.51469 30.25 9.99997 30.25H21.25C23.7352 30.25 25.75 32.2647 25.75 34.75V46C25.75 48.4853 23.7352 50.5 21.25 50.5H9.99997C7.51469 50.5 5.49997 48.4853 5.49997 46V34.75Z" fill="#2689C7"/>
<path d="M30.25 10C30.25 7.51472 32.2647 5.5 34.75 5.5H46C48.4853 5.5 50.5 7.51472 50.5 10V21.25C50.5 23.7353 48.4853 25.75 46 25.75H34.75C32.2647 25.75 30.25 23.7353 30.25 21.25V10Z" fill="#2689C7"/>
<path d="M30.25 34.75C30.25 32.2647 32.2647 30.25 34.75 30.25H46C48.4853 30.25 50.5 32.2647 50.5 34.75V46C50.5 48.4853 48.4853 50.5 46 50.5H34.75C32.2647 50.5 30.25 48.4853 30.25 46V34.75Z" fill="#2689C7"/>
</svg>
