<svg width="22" height="22" viewBox="0 0 22 22" fill="none" xmlns="http://www.w3.org/2000/svg">
<path d="M22 11.25C22 10.47 21.9286 9.72 21.7959 9H11.2245V13.26H17.2653C17 14.63 16.2041 15.79 15.0102 16.57V19.34H18.6531C20.7755 17.42 22 14.6 22 11.25Z" fill="#4285F4"/>
<path d="M11.2245 22C14.2551 22 16.7959 21.02 18.6531 19.34L15.0102 16.57C14.0102 17.23 12.7347 17.63 11.2245 17.63C8.30611 17.63 5.82652 15.7 4.93876 13.1H1.20407V15.94C3.05101 19.53 6.83672 22 11.2245 22Z" fill="#34A853"/>
<path d="M4.93878 13.09C4.71429 12.43 4.58163 11.73 4.58163 11C4.58163 10.27 4.71429 9.57001 4.93878 8.91001V6.07001H1.20408C0.438776 7.55001 0 9.22001 0 11C0 12.78 0.438776 14.45 1.20408 15.93L4.11225 13.71L4.93878 13.09Z" fill="#FBBC05"/>
<path d="M11.2245 4.38C12.8775 4.38 14.3469 4.94 15.5204 6.02L18.7347 2.87C16.7857 1.09 14.2551 0 11.2245 0C6.83672 0 3.05101 2.47 1.20407 6.07L4.93876 8.91C5.82652 6.31 8.30611 4.38 11.2245 4.38Z" fill="#EA4335"/>
</svg>
