<svg width="25" height="25" viewBox="0 0 25 25" fill="none" xmlns="http://www.w3.org/2000/svg">
<rect width="25" height="25" rx="10" fill="#2689C7" fill-opacity="0.3"/>
<path d="M17.2969 8.77048C17.5827 8.77048 17.8568 8.65713 18.0588 8.45537C18.2609 8.25361 18.3744 7.97996 18.3744 7.69463C18.3744 7.4093 18.2609 7.13565 18.0588 6.93389C17.8568 6.73213 17.5827 6.61878 17.2969 6.61878C17.0111 6.61878 16.7371 6.73213 16.535 6.93389C16.3329 7.13565 16.2194 7.4093 16.2194 7.69463C16.2194 7.97996 16.3329 8.25361 16.535 8.45537C16.7371 8.65713 17.0111 8.77048 17.2969 8.77048Z" fill="#FFFEFE"/>
<path fill-rule="evenodd" clip-rule="evenodd" d="M12.493 7.8583C11.886 7.8583 11.285 7.97767 10.7243 8.20958C10.1635 8.44149 9.65399 8.78142 9.2248 9.20994C8.79561 9.63846 8.45516 10.1472 8.22289 10.7071C7.99061 11.267 7.87106 11.8671 7.87106 12.4731C7.87106 13.0791 7.99061 13.6792 8.22289 14.2391C8.45516 14.799 8.79561 15.3077 9.2248 15.7362C9.65399 16.1647 10.1635 16.5046 10.7243 16.7366C11.285 16.9685 11.886 17.0878 12.493 17.0878C13.7188 17.0878 14.8944 16.6016 15.7612 15.7362C16.628 14.8708 17.115 13.697 17.115 12.4731C17.115 11.2492 16.628 10.0754 15.7612 9.20994C14.8944 8.3445 13.7188 7.8583 12.493 7.8583ZM12.493 15.4701C12.0987 15.4701 11.7082 15.3925 11.3439 15.2419C10.9796 15.0912 10.6486 14.8704 10.3698 14.592C10.091 14.3136 9.86981 13.9831 9.71891 13.6194C9.56801 13.2556 9.49034 12.8658 9.49034 12.4721C9.49034 12.0784 9.56801 11.6885 9.71891 11.3248C9.86981 10.9611 10.091 10.6306 10.3698 10.3522C10.6486 10.0738 10.9796 9.85294 11.3439 9.70228C11.7082 9.55161 12.0987 9.47407 12.493 9.47407C13.2894 9.47407 14.0531 9.78993 14.6162 10.3522C15.1793 10.9144 15.4957 11.677 15.4957 12.4721C15.4957 13.2672 15.1793 14.0297 14.6162 14.592C14.0531 15.1542 13.2894 15.4701 12.493 15.4701Z" fill="#FFFEFE"/>
<path fill-rule="evenodd" clip-rule="evenodd" d="M19.985 5.00904C20.4382 5.46136 20.7918 6.00317 21.0232 6.5998C21.29 7.30764 21.4324 8.05616 21.444 8.81237C21.5 9.76746 21.5 10.0768 21.5 12.515C21.5 14.9531 21.487 15.2575 21.444 16.2176C21.429 16.9641 21.2881 17.7006 21.0252 18.3992C20.7934 18.9956 20.4396 19.5372 19.9865 19.9894C19.5333 20.4417 18.9908 20.7947 18.3934 21.0259C17.694 21.2879 16.9552 21.4296 16.2084 21.4451C15.2538 21.5 14.9409 21.5 12.5 21.5C10.0591 21.5 9.75422 21.487 8.79165 21.4451C8.04335 21.4206 7.30474 21.2687 6.60762 20.996C6.00995 20.765 5.4671 20.4121 5.01376 19.9599C4.56042 19.5076 4.20656 18.9658 3.97479 18.3693C3.71191 17.6697 3.57097 16.9331 3.55598 16.1866C3.5 15.2315 3.5 14.9212 3.5 12.484C3.5 10.0459 3.51299 9.74152 3.55598 8.78144C3.57058 8.03577 3.71221 7.29802 3.97479 6.5998C4.20591 6.00302 4.55943 5.46106 5.01266 5.00871C5.46589 4.55636 6.00882 4.20359 6.60662 3.97305C7.30507 3.71018 8.04337 3.56842 8.78965 3.55389C9.74423 3.5 10.0571 3.5 12.498 3.5C14.9389 3.5 15.2438 3.51198 16.2064 3.55389C16.9532 3.56922 17.692 3.71095 18.3914 3.97305C18.989 4.20386 19.5318 4.55672 19.985 5.00904ZM19.4949 17.7974C19.6941 17.2577 19.7992 16.6879 19.8058 16.1128L19.8167 16.1138C19.8597 15.1597 19.8597 14.8982 19.8597 12.4671C19.8597 10.0349 19.8487 9.76746 19.8058 8.81936C19.7968 8.25062 19.6917 7.68747 19.4949 7.15369C19.3449 6.76532 19.1151 6.41259 18.8204 6.11817C18.5257 5.82375 18.1725 5.59414 17.7837 5.44411C17.2492 5.24592 16.6845 5.14126 16.1144 5.13473C15.1478 5.07984 14.8979 5.07984 12.462 5.07984C10.0261 5.07984 9.75822 5.09182 8.80864 5.13473C8.23892 5.14268 7.67473 5.24764 7.14038 5.44511C6.35173 5.74651 5.72701 6.36527 5.42215 7.15369C5.22289 7.69303 5.11774 8.2625 5.11128 8.83732C5.05831 9.80439 5.05831 10.0529 5.05831 12.485C5.05831 14.9162 5.0683 15.1826 5.11128 16.1307C5.12048 16.6998 5.22557 17.2632 5.42215 17.7974C5.5728 18.1861 5.80349 18.539 6.09929 18.8331C6.3951 19.1273 6.74943 19.3562 7.13938 19.505C7.67379 19.7035 8.23849 19.8085 8.80864 19.8154C9.77619 19.8703 10.0251 19.8703 12.4619 19.8703C14.8968 19.8703 15.1648 19.8593 16.1144 19.8154C16.6841 19.8084 17.2489 19.7036 17.7837 19.504C18.1723 19.3545 18.5254 19.1254 18.8201 18.8315C19.1148 18.5375 19.3447 18.1853 19.4949 17.7974Z" fill="#FFFEFE"/>
</svg>
