<svg width="40" height="40" viewBox="0 0 40 40" fill="none" xmlns="http://www.w3.org/2000/svg">
<path d="M10.132 10.0494L10.1256 10.3142V10.8079V34.0126H15.5565V10.8079C15.5565 10.8079 16.4429 10.4485 17.0377 10.3142C18.3542 10.0169 19.1611 9.92861 20.5193 10.0494C21.6954 10.1541 22.4094 10.2078 23.4624 10.7419C24.3344 11.1842 24.8627 11.4933 25.4309 12.289C25.9385 13 26.1519 13.5076 26.2323 14.3775C26.3387 15.5283 26.113 16.2933 25.4309 17.2262C24.8618 18.0044 24.333 18.3071 23.456 18.7073C22.389 19.1943 20.4937 19.2011 20.4937 19.2011V24.1382L23.9788 30.0628C23.9788 30.0628 24.6685 31.1969 25.1936 31.8627C26.1084 33.0227 26.7664 34.0159 27.8994 34.5063C28.8017 34.8968 29.3849 35 30.368 35C31.3512 35 32.8366 34.5063 32.8366 34.5063L33.3303 30.0628C33.3303 30.0628 32.4205 30.153 31.8492 30.0628C31.2469 29.9677 30.8824 29.8965 30.368 29.5691C29.9079 29.2763 29.3806 28.5817 29.3806 28.5817L25.9246 23.1508C25.9246 23.1508 27.182 22.6417 27.8994 22.1634C29.0338 21.4071 29.6666 20.8638 30.368 19.6947C30.9954 18.6491 31.7025 17.0745 31.8492 15.2513C31.9739 13.7018 31.8834 12.7636 31.3555 11.3015C30.5429 9.0515 29.4999 7.81052 27.4442 6.58702C26.2032 5.84841 24.9761 5.48493 23.2893 5.20205C21.489 4.90013 20.4253 4.96725 18.615 5.20205C17.4025 5.3593 16.2927 5.57076 15.5565 5.8707C15.1573 6.03337 14.5691 6.36442 14.5691 6.36442C14.5691 6.36442 13.9809 6.03337 13.5817 5.8707C12.8454 5.57076 12.396 5.47265 11.6068 5.37699C10.8412 5.28418 10.4015 5.32652 9.63192 5.37699C8.46162 5.45373 6.66962 5.8707 6.66962 5.8707V10.3142C6.66962 10.3142 7.87709 10.391 8.64448 10.3142C9.2316 10.2554 10.132 10.0494 10.132 10.0494Z" fill="#2689C7"/>
</svg>
