<svg width="46" height="35" viewBox="0 0 46 35" fill="none" xmlns="http://www.w3.org/2000/svg">
<path d="M9.14567 34.9233V32.6005C9.14567 31.712 8.60508 31.1302 7.67707 31.1302C7.21307 31.1302 6.70852 31.2835 6.36164 31.7887C6.09135 31.3647 5.70393 31.1302 5.1228 31.1302C4.73538 31.1302 4.34795 31.2474 4.04162 31.6714V31.2068H3.23074V34.9233H4.04162V32.8711C4.04162 32.2126 4.3885 31.9014 4.92909 31.9014C5.46967 31.9014 5.73997 32.2487 5.73997 32.8711V34.9233H6.55085V32.8711C6.55085 32.2126 6.93827 31.9014 7.43831 31.9014C7.9789 31.9014 8.24919 32.2487 8.24919 32.8711V34.9233H9.14567ZM21.1737 31.2068H19.8583V30.0838H19.0474V31.2068H18.3131V31.942H19.0474V33.6469C19.0474 34.4994 19.3943 35 20.3223 35C20.6692 35 21.0566 34.8827 21.3269 34.7294L21.0926 34.0303C20.8584 34.1836 20.5881 34.2242 20.3944 34.2242C20.007 34.2242 19.8538 33.9897 19.8538 33.6063V31.942H21.1692V31.2068H21.1737ZM28.0572 31.1256C27.5932 31.1256 27.2824 31.3602 27.0887 31.6669V31.2023H26.2778V34.9188H27.0887V32.826C27.0887 32.2081 27.3589 31.8563 27.8635 31.8563C28.0167 31.8563 28.2104 31.8969 28.368 31.933L28.6023 31.1572C28.4401 31.1256 28.2104 31.1256 28.0572 31.1256ZM17.6554 31.5135C17.268 31.2429 16.7274 31.1256 16.1463 31.1256C15.2183 31.1256 14.6011 31.5902 14.6011 32.3254C14.6011 32.9433 15.0651 33.2951 15.876 33.4079L16.2634 33.4485C16.6869 33.5251 16.9211 33.6424 16.9211 33.8363C16.9211 34.107 16.6103 34.3009 16.0697 34.3009C15.5291 34.3009 15.1011 34.107 14.8308 33.913L14.4434 34.5309C14.8669 34.8421 15.448 34.9955 16.0291 34.9955C17.1103 34.9955 17.732 34.4903 17.732 33.7957C17.732 33.1372 17.2274 32.7899 16.4571 32.6727L16.0697 32.6321C15.7228 32.5915 15.4525 32.5148 15.4525 32.2848C15.4525 32.0142 15.7228 31.8608 16.1508 31.8608C16.6148 31.8608 17.0788 32.0548 17.313 32.172L17.6554 31.5135ZM39.2293 31.1256C38.7653 31.1256 38.4545 31.3602 38.2608 31.6669V31.2023H37.4499V34.9188H38.2608V32.826C38.2608 32.2081 38.5311 31.8563 39.0356 31.8563C39.1888 31.8563 39.3825 31.8969 39.5402 31.933L39.7744 31.1662C39.6168 31.1256 39.387 31.1256 39.2293 31.1256ZM28.8681 33.0651C28.8681 34.1881 29.6429 35 30.8412 35C31.3818 35 31.7692 34.8827 32.1567 34.576L31.7692 33.9175C31.4584 34.1521 31.1521 34.2648 30.8007 34.2648C30.143 34.2648 29.679 33.8003 29.679 33.0651C29.679 32.366 30.143 31.9014 30.8007 31.8653C31.1476 31.8653 31.4584 31.9826 31.7692 32.2126L32.1567 31.5541C31.7692 31.2429 31.3818 31.1302 30.8412 31.1302C29.6429 31.1256 28.8681 31.942 28.8681 33.0651ZM36.3687 31.2068H35.5579V31.6714C35.2876 31.3241 34.9001 31.1302 34.3956 31.1302C33.3505 31.1302 32.5396 31.942 32.5396 33.0651C32.5396 34.1881 33.3505 35 34.3956 35C34.9362 35 35.3236 34.8061 35.5579 34.4588V34.9233H36.3687V31.2068ZM33.391 33.0651C33.391 32.4066 33.8145 31.8653 34.5127 31.8653C35.1704 31.8653 35.6344 32.3705 35.6344 33.0651C35.6344 33.7236 35.1704 34.2648 34.5127 34.2648C33.819 34.2242 33.391 33.7191 33.391 33.0651ZM23.6875 31.1256C22.6063 31.1256 21.8314 31.9014 21.8314 33.0606C21.8314 34.2242 22.6063 34.9955 23.728 34.9955C24.2686 34.9955 24.8092 34.8421 25.2371 34.4903L24.8497 33.9085C24.5389 34.143 24.1515 34.2964 23.7685 34.2964C23.264 34.2964 22.764 34.0619 22.6468 33.4079H25.3903C25.3903 33.2906 25.3903 33.2139 25.3903 33.0966C25.4263 31.9014 24.7281 31.1256 23.6875 31.1256ZM23.6875 31.8247C24.192 31.8247 24.5389 32.136 24.6155 32.7133H22.6829C22.7595 32.2126 23.1063 31.8247 23.6875 31.8247ZM43.8333 29.7365H43.0225V31.6714C42.7522 31.3241 42.3647 31.1302 41.8602 31.1302C40.8151 31.1302 40.0042 31.942 40.0042 33.0651C40.0042 34.1881 40.8151 35 41.8602 35C42.4008 35 42.7882 34.8061 43.0225 34.4588V34.9233H43.8333V29.7365ZM40.8556 33.0651C40.8556 32.4066 41.2791 31.8653 41.9773 31.8653C42.635 31.8653 43.099 32.3705 43.099 33.0651C43.099 33.7236 42.635 34.2648 41.9773 34.2648C41.2791 34.2242 40.8556 33.7191 40.8556 33.0651ZM13.7091 31.2068H12.8982V31.6714C12.6279 31.3241 12.2405 31.1302 11.736 31.1302C10.6908 31.1302 9.87996 31.942 9.87996 33.0651C9.87996 34.1881 10.6908 35 11.736 35C12.2766 35 12.664 34.8061 12.8982 34.4588V34.9233H13.7091V31.2068ZM10.6953 33.0651C10.6953 32.4066 11.1188 31.8653 11.8171 31.8653C12.4748 31.8653 12.9388 32.3705 12.9388 33.0651C12.9388 33.7236 12.4748 34.2648 11.8171 34.2648C11.1188 34.2242 10.6953 33.7191 10.6953 33.0651Z" fill="black"/>
<path d="M29.5663 2.98131H17.3851V24.8924H29.5663V2.98131Z" fill="#FF5A00"/>
<path d="M18.196 13.9369C18.196 9.48518 20.2863 5.53415 23.4937 2.98131C21.1332 1.12307 18.1555 0 14.9074 0C7.21307 0 0.987305 6.23325 0.987305 13.9369C0.987305 21.6405 7.21307 27.8737 14.9074 27.8737C18.1555 27.8737 21.1332 26.7506 23.4937 24.8924C20.2818 22.3756 18.196 18.3885 18.196 13.9369Z" fill="#EB001B"/>
<path d="M46.0002 13.9369C46.0002 21.6405 39.7744 27.8737 32.0801 27.8737C28.832 27.8737 25.8543 26.7506 23.4937 24.8924C26.7418 22.3351 28.7915 18.3885 28.7915 13.9369C28.7915 9.48518 26.7012 5.53415 23.4937 2.98131C25.8498 1.12307 28.8275 0 32.0756 0C39.7744 0 46.0002 6.27384 46.0002 13.9369Z" fill="#F79E1B"/>
</svg>
