<svg width="92" height="14" viewBox="0 0 92 14" fill="none" xmlns="http://www.w3.org/2000/svg">
<path fill-rule="evenodd" clip-rule="evenodd" d="M8.81678 5.18237H14.2658L9.85746 8.38525L11.5413 13.5676L7.13292 10.3647L2.72453 13.5676L4.40839 8.38525L0 5.18237H5.44907L7.13292 0L8.81678 5.18237ZM8.45351 5.68237H12.727L9.26967 8.19427L10.5903 12.2586L7.13292 9.74671L3.67559 12.2586L4.99617 8.19427L1.53884 5.68237H5.81234L7.13292 1.61803L8.45351 5.68237Z" fill="#EC801C"/>
<path fill-rule="evenodd" clip-rule="evenodd" d="M28.0826 5.18237H33.5317L29.1233 8.38525L30.8072 13.5676L26.3988 10.3647L21.9904 13.5676L23.6743 8.38525L19.2659 5.18237H24.7149L26.3988 0L28.0826 5.18237ZM27.7194 5.68237H31.9929L28.5355 8.19427L29.8561 12.2586L26.3988 9.74671L22.9415 12.2586L24.262 8.19427L20.8047 5.68237H25.0782L26.3988 1.61803L27.7194 5.68237Z" fill="#EC801C"/>
<path fill-rule="evenodd" clip-rule="evenodd" d="M52.7976 5.18237H47.3485L45.6647 0L43.9808 5.18237H38.5317L42.9401 8.38525L41.2563 13.5676L45.6647 10.3647L50.0731 13.5676L48.3892 8.38525L52.7976 5.18237ZM51.2587 5.68237H46.9852L45.6647 1.61803L44.3441 5.68237H40.0706L43.5279 8.19427L42.2073 12.2586L45.6647 9.74671L49.122 12.2586L47.8014 8.19427L51.2587 5.68237Z" fill="#EC801C"/>
<path fill-rule="evenodd" clip-rule="evenodd" d="M66.6144 5.18237H72.0635L67.6551 8.38525L69.3389 13.5676L64.9305 10.3647L60.5221 13.5676L62.206 8.38525L57.7976 5.18237H63.2467L64.9305 0L66.6144 5.18237ZM66.2511 5.68237H70.5246L67.0673 8.19427L68.3879 12.2586L64.9305 9.74671L61.4732 12.2586L62.7938 8.19427L59.3364 5.68237H63.6099L64.9305 1.61803L66.2511 5.68237Z" fill="#EC801C"/>
<path fill-rule="evenodd" clip-rule="evenodd" d="M91.3292 5.18237H85.8801L84.1963 0L82.5124 5.18237H77.0634L81.4717 8.38525L79.7879 13.5676L84.1963 10.3647L88.6047 13.5676L86.9208 8.38525L91.3292 5.18237ZM89.7904 5.68237H85.5169L84.1963 1.61803L82.8757 5.68237H78.6022L82.0595 8.19427L80.7389 12.2586L84.1963 9.74671L87.6536 12.2586L86.333 8.19427L89.7904 5.68237Z" fill="#EC801C"/>
</svg>
