<svg width="20" height="20" viewBox="0 0 20 20" fill="none" xmlns="http://www.w3.org/2000/svg">
<path d="M7.75003 11.5008H6.25003V13.0008H7.75003V11.5008Z" fill="#FFFEFE"/>
<path d="M10.75 5.50001H9.25003V7.00001H10.75V5.50001Z" fill="#FFFEFE"/>
<path d="M13.75 5.50001H12.25V7.00001H13.75V5.50001Z" fill="#FFFEFE"/>
<path d="M13.75 8.52326H12.25V10H13.75V8.52326Z" fill="#FFFEFE"/>
<path d="M13.75 11.5H12.25V13H13.75V11.5Z" fill="#FFFEFE"/>
<path fill-rule="evenodd" clip-rule="evenodd" d="M7.75 2.5H15.25C16.0772 2.5 16.75 3.17275 16.75 4V16.75C16.75 16.9489 16.671 17.1397 16.5303 17.2803C16.3897 17.421 16.1989 17.5 16 17.5H4C3.80109 17.5 3.61032 17.421 3.46967 17.2803C3.32902 17.1397 3.25 16.9489 3.25 16.75V10C3.25 9.17275 3.92275 8.5 4.75 8.5H6.25V4C6.25 3.17275 6.92275 2.5 7.75 2.5ZM9.25 10H4.75V16H9.25V10ZM10.75 16H15.25V4H7.75V8.5H9.25C10.0772 8.5 10.75 9.17275 10.75 10V16Z" fill="#FFFEFE"/>
</svg>
