<svg width="20" height="20" viewBox="0 0 20 20" fill="none" xmlns="http://www.w3.org/2000/svg">
<path d="M14.1113 10.6236C13.9633 10.4756 13.7626 10.3925 13.5533 10.3925C13.344 10.3925 13.1433 10.4756 12.9953 10.6236L11.7381 11.8816C11.1549 11.7079 10.0665 11.3133 9.37676 10.6236C8.68699 9.93379 8.29238 8.84546 8.11875 8.26223L9.37676 7.00421C9.45021 6.93104 9.50849 6.84408 9.54826 6.74833C9.58802 6.65258 9.60849 6.54992 9.60849 6.44624C9.60849 6.34256 9.58802 6.2399 9.54826 6.14415C9.50849 6.0484 9.45021 5.96144 9.37676 5.88826L6.2199 2.7314C6.14667 2.65804 6.05969 2.59985 5.96395 2.56014C5.86821 2.52044 5.76557 2.5 5.66192 2.5C5.55827 2.5 5.45564 2.52044 5.3599 2.56014C5.26415 2.59985 5.17718 2.65804 5.10395 2.7314L2.9628 4.87175C2.6629 5.17166 2.49401 5.58363 2.50032 6.00428C2.51848 7.12812 2.81601 11.0316 5.89237 14.1079C8.96874 17.1843 12.8722 17.4811 13.9976 17.5H14.0189C14.4356 17.5 14.8295 17.3358 15.1278 17.0375L17.2681 14.8972C17.3416 14.824 17.3999 14.737 17.4396 14.6413C17.4794 14.5455 17.4999 14.4429 17.4999 14.3392C17.4999 14.2355 17.4794 14.1328 17.4396 14.0371C17.3999 13.9413 17.3416 13.8544 17.2681 13.7812L14.1113 10.6236ZM14.011 15.9208C13.0261 15.905 9.65615 15.6398 7.00833 12.9912C4.35182 10.3347 4.09454 6.95371 4.07876 5.9877L5.66113 4.40533L7.70205 6.44624L6.68159 7.4667C6.58883 7.55939 6.52062 7.67374 6.48314 7.7994C6.44566 7.92507 6.44009 8.0581 6.46692 8.18646C6.48586 8.27722 6.94913 10.4294 8.25923 11.7395C9.56933 13.0496 11.7215 13.5129 11.8123 13.5318C11.9405 13.5596 12.0736 13.5546 12.1994 13.5174C12.3252 13.4801 12.4396 13.4118 12.532 13.3187L13.5533 12.2967L15.5942 14.3384L14.011 15.9208Z" fill="#FFFEFE"/>
</svg>
