<svg width="93" height="35" viewBox="0 0 93 35" fill="none" xmlns="http://www.w3.org/2000/svg">
<path d="M21.8223 35H27.788L27.788 23.238L21.8222 23.238L21.8223 35Z" fill="black"/>
<path d="M30.2607 5.71382L54.0726 5.71383L54.0726 20L44.083 20L54.0726 29.1428L45.5864 29.1428L35.7896 20L35.7897 29.1428L30.2607 29.1428L30.2607 14.6195L47.7195 14.6195L47.7195 11.1431L30.2607 11.1431L30.2607 5.71382Z" fill="black"/>
<path d="M56.5453 29.1428L62.3648 29.1428L62.3648 5.66634L56.5452 5.66634L56.5453 29.1428Z" fill="black"/>
<path d="M9.94157 5.71379L9.94161 23.4761L18.8155 23.4761L18.8155 29.1428L5.28606 29.1428C4.51014 29.1428 3.8796 28.4761 3.8796 27.7141C3.87959 25.6786 3.89156 21.6078 3.90359 17.5131L3.9036 17.5123C3.91577 13.3696 3.92802 9.20237 3.92802 7.09426C3.92802 6.33331 4.55855 5.71379 5.38294 5.71379L9.94157 5.71379Z" fill="black"/>
<path d="M12.8514 11.5707L12.8514 5.71379L26.3821 5.7138C27.1568 5.76094 27.7882 6.38046 27.7882 7.14309L27.7883 20.3333L21.8225 20.3333L21.8225 11.5707L12.8514 11.5707Z" fill="black"/>
<path fill-rule="evenodd" clip-rule="evenodd" d="M12.8514 14.4275L12.8514 20.3804L18.7679 20.3804L18.7679 14.4275L12.8514 14.4275ZM17.0222 18.5706L14.5973 18.5706L14.5973 16.1902L17.0222 16.1902L17.0222 18.5706Z" fill="black"/>
<path d="M90.9289 32L90.9289 23.238L92.335 23.238L92.335 33.4285C92.335 34.1904 91.7053 34.8094 90.9784 34.8094L80.5519 34.8094V33.381L89.475 33.381C90.2497 33.381 90.9289 32.7618 90.9289 32Z" fill="black"/>
<path d="M1.45495 11.5236L1.45493 2.76095C1.45493 2 2.03683 1.42761 2.81275 1.42761L11.736 1.42761C11.7845 1.42761 11.7845 1.38048 11.7845 1.38048L11.7845 0.0471392C11.7845 0.0471392 11.7845 3.70298e-06 11.736 3.6856e-06L1.45492 0C0.630533 -2.95531e-07 -1.62478e-06 0.619529 0 1.42761L2.02996e-05 11.5236C2.03944e-05 11.5707 0.0484837 11.5707 0.0484837 11.5707H1.40648C1.40648 11.5707 1.45495 11.5707 1.45495 11.5236Z" fill="black"/>
<path d="M88.4067 5.71381L88.4067 11.5236L72.7431 11.5236V14.4764L88.4067 14.4764L88.4067 29.0475L64.8866 29.0475L64.8866 23.1904L80.5519 23.1904L80.5519 20.2862L64.8866 20.2862L64.8866 5.7138L88.4067 5.71381Z" fill="black"/>
</svg>
