<svg width="110" height="60" viewBox="0 0 110 60" fill="none" xmlns="http://www.w3.org/2000/svg">
<rect width="110" height="60" rx="10" fill="#091D2C"/>
<path d="M33.907 45.1622H39.0758L39.0758 34.9715L33.907 34.9715L33.907 45.1622Z" fill="#FFFEFE"/>
<path d="M41.2182 19.7883L61.8491 19.7883L61.8491 32.166L53.194 32.166L61.8491 40.0874L54.4966 40.0874L46.0085 32.166L46.0085 40.0874L41.2182 40.0874L41.2182 27.5043L56.3447 27.5043L56.3446 24.4923L41.2182 24.4923L41.2182 19.7883Z" fill="#FFFEFE"/>
<path d="M63.9914 40.0874L69.0335 40.0874L69.0335 19.7472L63.9914 19.7472L63.9914 40.0874Z" fill="#FFFEFE"/>
<path d="M23.6135 19.7883L23.6135 35.1777L31.302 35.1777L31.302 40.0874L19.5799 40.0874C18.9076 40.0874 18.3613 39.5098 18.3613 38.8496C18.3613 37.086 18.3717 33.559 18.3821 30.0113L18.3821 30.0107C18.3927 26.4213 18.4033 22.8108 18.4033 20.9844C18.4033 20.3251 18.9496 19.7883 19.6638 19.7883L23.6135 19.7883Z" fill="#FFFEFE"/>
<path d="M26.1346 24.8628L26.1346 19.7883L37.8577 19.7883C38.529 19.8291 39.076 20.3659 39.076 21.0267L39.076 32.4548L33.9072 32.4548L33.9072 24.8628L26.1346 24.8628Z" fill="#FFFEFE"/>
<path fill-rule="evenodd" clip-rule="evenodd" d="M26.1346 27.338L26.1346 32.4956L31.2607 32.4956L31.2607 27.338L26.1346 27.338ZM29.7482 30.9276L27.6473 30.9276L27.6473 28.8651L29.7482 28.8651L29.7482 30.9276Z" fill="#FFFEFE"/>
<path d="M93.7817 42.5629L93.7817 34.9715L95 34.9715L95 43.8006C95 44.4607 94.4544 44.9971 93.8246 44.9971L84.791 44.9971V43.7594L92.522 43.7594C93.1933 43.7594 93.7817 43.223 93.7817 42.5629Z" fill="#FFFEFE"/>
<path d="M16.2606 24.822L16.2606 17.2299C16.2606 16.5706 16.7647 16.0747 17.437 16.0747L25.1682 16.0747C25.2102 16.0747 25.2102 16.0339 25.2102 16.0339L25.2102 14.8787C25.2102 14.8787 25.2102 14.8378 25.1682 14.8378L16.2606 14.8378C15.5463 14.8378 15 15.3746 15 16.0747L15 24.822C15 24.8628 15.042 24.8628 15.042 24.8628H16.2186C16.2186 24.8628 16.2606 24.8628 16.2606 24.822Z" fill="#FFFEFE"/>
<path d="M91.5965 19.7883L91.5965 24.822L78.0254 24.822V27.3803L91.5965 27.3804L91.5965 40.0049L71.2184 40.0049L71.2184 34.9302L84.791 34.9302L84.791 32.414L71.2184 32.414L71.2184 19.7883L91.5965 19.7883Z" fill="#FFFEFE"/>
</svg>
