<svg width="99" height="15" viewBox="0 0 99 15" fill="none" xmlns="http://www.w3.org/2000/svg">
<path d="M8.48958 0.397747C8.36936 0.154191 8.1213 0 7.84969 0C7.57807 0 7.33001 0.154191 7.20979 0.397747L5.17062 4.52888L0.610419 5.19542C0.341704 5.2347 0.118573 5.42309 0.0348118 5.68142C-0.0489495 5.93975 0.0211785 6.22324 0.21572 6.41272L3.51487 9.62609L2.73627 14.1658C2.69035 14.4335 2.80042 14.7041 3.02019 14.8637C3.23997 15.0234 3.53132 15.0444 3.77175 14.918L7.84969 12.7734L11.9276 14.918C12.168 15.0444 12.4594 15.0234 12.6792 14.8637C12.899 14.7041 13.009 14.4335 12.9631 14.1658L12.1845 9.62609L15.4837 6.41272C15.6782 6.22324 15.7483 5.93975 15.6646 5.68142C15.5808 5.42309 15.3577 5.2347 15.089 5.19542L10.5287 4.52888L8.48958 0.397747Z" fill="#EC801C"/>
<path d="M29.189 0.397747C29.0687 0.154191 28.8207 0 28.5491 0C28.2774 0 28.0294 0.154191 27.9092 0.397747L25.87 4.52888L21.3098 5.19542C21.0411 5.2347 20.8179 5.42309 20.7342 5.68142C20.6504 5.93975 20.7206 6.22324 20.9151 6.41272L24.2142 9.62609L23.4356 14.1658C23.3897 14.4335 23.4998 14.7041 23.7196 14.8637C23.9393 15.0234 24.2307 15.0444 24.4711 14.918L28.5491 12.7734L32.627 14.918C32.8674 15.0444 33.1588 15.0234 33.3786 14.8637C33.5983 14.7041 33.7084 14.4335 33.6625 14.1658L32.8839 9.62609L36.183 6.41272C36.3776 6.22324 36.4477 5.93975 36.3639 5.68142C36.2802 5.42309 36.057 5.2347 35.7883 5.19542L31.2281 4.52888L29.189 0.397747Z" fill="#EC801C"/>
<path d="M49.2484 0C49.52 0 49.7681 0.154191 49.8883 0.397747L51.9275 4.52888L56.4877 5.19542C56.7564 5.2347 56.9795 5.42309 57.0633 5.68142C57.1471 5.93975 57.0769 6.22324 56.8824 6.41272L53.5832 9.62609L54.3618 14.1658C54.4078 14.4335 54.2977 14.7041 54.0779 14.8637C53.8581 15.0234 53.5668 15.0444 53.3264 14.918L49.2484 12.7734L45.1705 14.918C44.9301 15.0444 44.6387 15.0234 44.4189 14.8637C44.1992 14.7041 44.0891 14.4335 44.135 14.1658L44.9136 9.62609L41.6145 6.41272C41.4199 6.22324 41.3498 5.93975 41.4336 5.68142C41.5173 5.42309 41.7404 5.2347 42.0092 5.19542L46.5694 4.52888L48.6085 0.397747C48.7288 0.154191 48.9768 0 49.2484 0Z" fill="#EC801C"/>
<path d="M70.5877 0.397747C70.4675 0.154191 70.2194 0 69.9478 0C69.6762 0 69.4281 0.154191 69.3079 0.397747L67.2687 4.52888L62.7085 5.19542C62.4398 5.2347 62.2167 5.42309 62.1329 5.68142C62.0492 5.93975 62.1193 6.22324 62.3138 6.41272L65.613 9.62609L64.8344 14.1658C64.7885 14.4335 64.8985 14.7041 65.1183 14.8637C65.3381 15.0234 65.6294 15.0444 65.8699 14.918L69.9478 12.7734L74.0257 14.918C74.2662 15.0444 74.5575 15.0234 74.7773 14.8637C74.9971 14.7041 75.1071 14.4335 75.0612 14.1658L74.2826 9.62609L77.5818 6.41272C77.7763 6.22324 77.8464 5.93975 77.7627 5.68142C77.6789 5.42309 77.4558 5.2347 77.1871 5.19542L72.6269 4.52888L70.5877 0.397747Z" fill="#EC801C"/>
<path d="M90.6472 0C90.9188 0 91.1668 0.154191 91.2871 0.397747L93.3262 4.52888L97.8864 5.19542C98.1552 5.2347 98.3783 5.42309 98.462 5.68142C98.5458 5.93975 98.4757 6.22324 98.2811 6.41272L94.982 9.62609L95.7606 14.1658C95.8065 14.4335 95.6964 14.7041 95.4767 14.8637C95.2569 15.0234 94.9655 15.0444 94.7251 14.918L90.6472 12.7734L86.5692 14.918C86.3288 15.0444 86.0375 15.0234 85.8177 14.8637C85.5979 14.7041 85.4878 14.4335 85.5338 14.1658L86.3124 9.62609L83.0132 6.41272C82.8187 6.22324 82.7485 5.93975 82.8323 5.68142C82.9161 5.42309 83.1392 5.2347 83.4079 5.19542L87.9681 4.52888L90.0073 0.397747C90.1275 0.154191 90.3756 0 90.6472 0Z" fill="#EC801C"/>
</svg>
