<svg width="92" height="14" viewBox="0 0 92 14" fill="none" xmlns="http://www.w3.org/2000/svg">
<path d="M7.13292 0L8.81678 5.18237H14.2658L9.85746 8.38525L11.5413 13.5676L7.13292 10.3647L2.72453 13.5676L4.40839 8.38525L0 5.18237H5.44907L7.13292 0Z" fill="#EC801C"/>
<path d="M26.3988 0L28.0826 5.18237H33.5317L29.1233 8.38525L30.8072 13.5676L26.3988 10.3647L21.9904 13.5676L23.6743 8.38525L19.2659 5.18237H24.7149L26.3988 0Z" fill="#EC801C"/>
<path d="M47.3485 5.18237L45.6647 0L43.9808 5.18237H38.5317L42.9401 8.38525L41.2563 13.5676L45.6647 10.3647L50.0731 13.5676L48.3892 8.38525L52.7976 5.18237H47.3485Z" fill="#EC801C"/>
<path d="M64.9304 0L66.6143 5.18237H72.0633L67.6549 8.38525L69.3388 13.5676L64.9304 10.3647L60.522 13.5676L62.2059 8.38525L57.7975 5.18237H63.2466L64.9304 0Z" fill="#EC801C"/>
<path d="M85.8801 5.18237L84.1963 0L82.5124 5.18237H77.0634L81.4717 8.38525L79.7879 13.5676L84.1963 10.3647L88.6047 13.5676L86.9208 8.38525L91.3292 5.18237H85.8801Z" fill="#EC801C"/>
</svg>
