<svg width="25" height="25" viewBox="0 0 25 25" fill="none" xmlns="http://www.w3.org/2000/svg">
<rect width="25" height="25" rx="10" fill="#2689C7" fill-opacity="0.3"/>
<path d="M19.4112 7.72222C18.5138 7.52488 17.7019 7.04832 17.0922 6.36093C16.4824 5.67354 16.1061 4.81066 16.0172 3.89611V3.5H12.9113V15.8066C12.9119 16.3526 12.7407 16.885 12.422 17.3284C12.1032 17.7718 11.653 18.1036 11.1352 18.2769C10.6173 18.4501 10.0581 18.4561 9.53666 18.2939C9.01525 18.1316 8.5581 17.8095 8.22996 17.373C7.93597 16.9867 7.75596 16.5258 7.71026 16.0424C7.66457 15.5591 7.75502 15.0726 7.97138 14.638C8.18775 14.2034 8.5214 13.838 8.9346 13.5831C9.3478 13.3283 9.82407 13.1941 10.3096 13.1958C10.5778 13.194 10.8452 13.2336 11.1018 13.3128V10.1619C9.92633 10.0057 8.73144 10.2201 7.6836 10.7752C6.63576 11.3303 5.78717 12.1984 5.25608 13.2586C4.72499 14.3188 4.53785 15.5183 4.72074 16.6899C4.90363 17.8615 5.44744 18.9468 6.27639 19.7947C7.06996 20.6015 8.08546 21.1542 9.19386 21.3826C10.3023 21.6109 11.4535 21.5047 12.5014 21.0772C13.5492 20.6498 14.4464 19.9205 15.0788 18.982C15.7112 18.0435 16.0504 16.9382 16.0532 15.8066V9.50474C17.3059 10.3995 18.808 10.8782 20.3475 10.8731V7.81225C20.0451 7.81349 19.7434 7.78332 19.4472 7.72222H19.4112Z" fill="#FFFEFE"/>
</svg>
