<svg width="25" height="25" viewBox="0 0 25 25" fill="none" xmlns="http://www.w3.org/2000/svg">
<rect width="25" height="25" rx="10" fill="#2689C7" fill-opacity="0.3"/>
<path fill-rule="evenodd" clip-rule="evenodd" d="M18.8471 6.11617C18.0208 5.28437 17.0376 4.62482 15.9546 4.17575C14.8716 3.72667 13.7102 3.49699 12.5377 3.50003C7.62143 3.50003 3.61923 7.50124 3.61724 12.4195C3.61724 13.9914 4.0276 15.5255 4.80757 16.8788L3.54272 21.5L8.27124 20.259C9.57919 20.971 11.0446 21.3444 12.5338 21.345H12.5377C17.4531 21.345 21.4553 17.3438 21.4572 12.4255C21.4606 11.2535 21.2317 10.0925 20.7837 9.00957C20.3357 7.92662 19.6774 6.94321 18.8471 6.11617ZM12.5377 19.8397H12.5348C11.2068 19.8399 9.90334 19.4826 8.76109 18.8054L8.49083 18.6444L5.68492 19.3807L6.43309 16.6453L6.25723 16.3651C5.5148 15.1831 5.12178 13.8153 5.12353 12.4195C5.12552 8.33188 8.45108 5.00632 12.5407 5.00632C13.5147 5.00416 14.4794 5.19518 15.3791 5.56835C16.2787 5.94151 17.0954 6.4894 17.7819 7.18031C18.4721 7.86792 19.0192 8.6855 19.3915 9.5858C19.7637 10.4861 19.9539 11.4513 19.951 12.4255C19.949 16.5131 16.6234 19.8397 12.5377 19.8397ZM16.6045 14.2865C16.381 14.1742 15.286 13.6357 15.0813 13.5612C14.8777 13.4867 14.7296 13.4499 14.5806 13.6725C14.4315 13.895 14.0043 14.3968 13.8741 14.5458C13.744 14.6949 13.6138 14.7128 13.3912 14.6015C13.1687 14.4902 12.4503 14.2547 11.5988 13.4956C10.9361 12.9044 10.4889 12.1751 10.3588 11.9515C10.2286 11.728 10.3449 11.6078 10.4572 11.4965C10.5575 11.3971 10.6797 11.2362 10.791 11.106C10.9023 10.9758 10.939 10.8834 11.0136 10.7344C11.0881 10.5854 11.0513 10.4552 10.9947 10.3439C10.939 10.2316 10.4929 9.13471 10.3071 8.68858C10.1273 8.25637 9.94347 8.314 9.80635 8.30804C9.66434 8.30223 9.52222 8.29958 9.3801 8.30009C9.26708 8.30297 9.15588 8.32917 9.05346 8.37704C8.95105 8.42491 8.85963 8.49343 8.78493 8.57829C8.58025 8.80185 8.00496 9.34038 8.00496 10.4373C8.00496 11.5342 8.80381 12.5944 8.91509 12.7434C9.02638 12.8925 10.487 15.143 12.7226 16.1088C13.2551 16.3383 13.6704 16.4754 13.9934 16.5787C14.5269 16.7486 15.0128 16.7238 15.3973 16.6672C15.8255 16.6036 16.7158 16.1286 16.9016 15.608C17.0874 15.0873 17.0874 14.6412 17.0318 14.5478C16.9761 14.4544 16.8261 14.3978 16.6045 14.2865Z" fill="#FFFEFE"/>
</svg>
