<svg width="60" height="60" viewBox="0 0 60 60" fill="none" xmlns="http://www.w3.org/2000/svg">
<rect width="60" height="60" rx="30" fill="#55CD6C"/>
<g clip-path="url(#clip0_2211_1292)">
<path d="M9 51L11.8965 40.5C10.0138 37.2414 9 33.6207 9 29.8551C9 18.4138 18.4138 9 29.9276 9C41.4413 9 51 18.4138 51 29.8551C51 41.2964 41.4414 51 29.9276 51C26.3069 51 22.831 49.8414 19.7172 48.1035L9 51Z" fill="#EDEDED"/>
<path d="M20.2965 44.3379L20.9482 44.7C23.6275 46.3655 26.7414 47.3793 30 47.3793C39.4861 47.3793 47.3793 39.4861 47.3793 29.8551C47.3793 20.2241 39.4861 12.6207 29.9275 12.6207C20.3689 12.6207 12.6207 20.2965 12.6207 29.8551C12.6207 33.1861 13.5621 36.4448 15.3 39.1965L15.7345 39.8482L14.069 45.931L20.2965 44.3379Z" fill="#55CD6C"/>
<path d="M24.3518 20.1517L22.976 20.0793C22.5414 20.0793 22.107 20.2242 21.8174 20.5138C21.1656 21.0931 20.0794 22.1793 19.7898 23.6276C19.2829 25.8001 20.0794 28.4069 21.9622 31.0138C23.845 33.6207 27.4657 37.8207 33.8381 39.631C35.8656 40.2103 37.4588 39.8482 38.7622 39.0517C39.7761 38.4 40.4277 37.3862 40.645 36.3L40.8622 35.2862C40.9347 34.9965 40.7898 34.6344 40.5001 34.4896L35.9381 32.3896C35.6484 32.2448 35.2863 32.3172 35.0691 32.6069L33.2588 34.9241C33.1139 35.0689 32.8967 35.1413 32.6794 35.0689C31.4484 34.6344 27.3208 32.8965 25.076 28.5517C25.0035 28.3345 25.0035 28.1172 25.1484 27.9724L26.8863 26.0173C27.0312 25.8001 27.1035 25.5104 27.0312 25.2931L24.9312 20.5862C24.8587 20.3689 24.6414 20.1517 24.3518 20.1517Z" fill="#FEFEFE"/>
</g>
<defs>
<clipPath id="clip0_2211_1292">
<rect width="42" height="42" fill="white" transform="translate(9 9)"/>
</clipPath>
</defs>
</svg>
