<svg width="42" height="42" viewBox="0 0 42 42" fill="none" xmlns="http://www.w3.org/2000/svg">
<g clip-path="url(#clip0_2251_3416)">
<path d="M0 42L2.89652 31.5C1.01382 28.2414 0 24.6207 0 20.8551C0 9.41382 9.41382 0 20.9276 0C32.4413 0 42 9.41382 42 20.8551C42 32.2964 32.4414 42 20.9276 42C17.3069 42 13.831 40.8414 10.7172 39.1035L0 42Z" fill="#EDEDED"/>
<path d="M11.2965 35.3378L11.9482 35.6999C14.6275 37.3654 17.7414 38.3792 21 38.3792C30.4861 38.3792 38.3793 30.4861 38.3793 20.855C38.3793 11.224 30.4861 3.62061 20.9275 3.62061C11.3689 3.62061 3.62066 11.2964 3.62066 20.855C3.62066 24.1861 4.56205 27.4447 6.29996 30.1964L6.73448 30.8482L5.069 36.931L11.2965 35.3378Z" fill="#55CD6C"/>
<path d="M15.3518 11.1515L13.976 11.0791C13.5415 11.0791 13.107 11.224 12.8174 11.5136C12.1656 12.0929 11.0795 13.1791 10.7898 14.6274C10.2829 16.7999 11.0795 19.4068 12.9622 22.0136C14.845 24.6205 18.4657 28.8205 24.8381 30.6308C26.8656 31.2101 28.4588 30.8481 29.7622 30.0515C30.7761 29.3998 31.4277 28.3861 31.645 27.2998L31.8622 26.286C31.9347 25.9963 31.7898 25.6342 31.5002 25.4894L26.9381 23.3895C26.6484 23.2446 26.2863 23.317 26.0691 23.6067L24.2588 25.9239C24.1139 26.0688 23.8967 26.1411 23.6795 26.0688C22.4484 25.6342 18.3208 23.8963 16.076 19.5515C16.0035 19.3343 16.0035 19.117 16.1484 18.9722L17.8863 17.0171C18.0312 16.7999 18.1035 16.5102 18.0312 16.2929L15.9312 11.5861C15.8587 11.3688 15.6415 11.1515 15.3518 11.1515Z" fill="#FEFEFE"/>
</g>
<defs>
<clipPath id="clip0_2251_3416">
<rect width="42" height="42" fill="white"/>
</clipPath>
</defs>
</svg>
