<svg width="25" height="25" viewBox="0 0 25 25" fill="none" xmlns="http://www.w3.org/2000/svg">
<rect width="25" height="25" rx="10" fill="#2689C7" fill-opacity="0.3"/>
<path d="M21.1338 8.18034C21.0314 7.80027 20.8312 7.45366 20.5532 7.175C20.2751 6.89635 19.929 6.69537 19.5491 6.59206C18.1407 6.20534 12.5071 6.19904 12.5071 6.19904C12.5071 6.19904 6.87262 6.19275 5.46331 6.56239C5.08371 6.67044 4.73826 6.87426 4.46013 7.15429C4.182 7.43431 3.98052 7.78113 3.87504 8.16145C3.5036 9.56986 3.5 12.491 3.5 12.491C3.5 12.491 3.4964 15.4265 3.86514 16.8205C4.072 17.5913 4.67907 18.2002 5.45072 18.4079C6.87352 18.7946 12.4927 18.8009 12.4927 18.8009C12.4927 18.8009 18.1273 18.8072 19.5357 18.4385C19.9156 18.3354 20.2621 18.1348 20.5408 17.8568C20.8196 17.5787 21.0209 17.2326 21.1248 16.8529C21.4972 15.4454 21.4999 12.5252 21.4999 12.5252C21.4999 12.5252 21.5179 9.58874 21.1338 8.18034ZM10.7039 15.1972L10.7084 9.80099L15.3914 12.5036L10.7039 15.1972Z" fill="#FFFEFE"/>
</svg>
